<?xml version="1.0" standalone="no"?>
<!DOCTYPE svg PUBLIC "-//W3C//DTD SVG 20010904//EN"
 "http://www.w3.org/TR/2001/REC-SVG-20010904/DTD/svg10.dtd">
<svg version="1.0" xmlns="http://www.w3.org/2000/svg"
 width="64.000000pt" height="64.000000pt" viewBox="0 0 64.000000 64.000000"
 preserveAspectRatio="xMidYMid meet">

<g transform="translate(0.000000,64.000000) scale(0.100000,-0.100000)"
fill="#000000" stroke="none">
<path d="M280 550 c0 -6 7 -13 16 -17 11 -4 4 -11 -25 -24 -35 -15 -81 -67
-81 -91 0 -5 58 -8 130 -8 72 0 130 3 130 8 0 24 -46 76 -81 91 -29 13 -36 20
-25 24 30 12 16 27 -24 27 -22 0 -40 -5 -40 -10z m30 -68 c0 -5 -14 -19 -31
-31 -40 -30 -63 -13 -23 18 27 21 54 28 54 13z"/>
<path d="M11 416 c-15 -18 5 -184 25 -207 10 -11 11 -23 4 -50 -13 -43 -13
-79 0 -79 5 0 15 27 22 60 l12 61 50 -3 50 -3 14 -57 c14 -58 32 -78 32 -35 0
12 -4 38 -10 56 -8 28 -6 38 6 53 15 16 15 19 0 43 -14 21 -24 25 -66 25 l-49
0 -11 43 c-6 23 -14 51 -17 62 -12 44 -40 58 -62 31z"/>
<path d="M582 418 c-5 -7 -15 -33 -22 -58 -6 -25 -13 -53 -16 -62 -4 -14 -16
-18 -54 -18 -42 0 -52 -4 -66 -25 -15 -24 -15 -27 0 -43 12 -15 14 -25 6 -53
-6 -18 -10 -44 -10 -56 0 -43 18 -23 32 35 l14 57 50 3 50 3 12 -61 c7 -33 17
-60 22 -60 13 0 13 36 0 79 -7 26 -6 39 4 50 20 24 40 189 25 207 -14 17 -33
18 -47 2z"/>
<path d="M124 375 c-4 -8 -4 -22 0 -30 5 -13 33 -15 193 -13 l188 3 0 25 0 25
-188 3 c-160 2 -188 0 -193 -13z"/>
<path d="M297 304 c-4 -4 -7 -44 -7 -89 0 -69 -3 -85 -20 -100 -29 -26 -16
-35 49 -35 68 0 78 6 52 34 -16 17 -21 38 -23 106 -3 77 -5 85 -23 88 -12 2
-24 0 -28 -4z"/>
</g>
</svg>
