<?xml version="1.0" standalone="no"?>
<!DOCTYPE svg PUBLIC "-//W3C//DTD SVG 20010904//EN"
 "http://www.w3.org/TR/2001/REC-SVG-20010904/DTD/svg10.dtd">
<svg version="1.0" xmlns="http://www.w3.org/2000/svg"
 width="64.000000pt" height="64.000000pt" viewBox="0 0 64.000000 64.000000"
 preserveAspectRatio="xMidYMid meet">

<g transform="translate(0.000000,64.000000) scale(0.100000,-0.100000)"
fill="#000000" stroke="none">
<path d="M560 628 c0 -7 5 -20 10 -28 8 -11 9 -9 8 13 -2 26 -18 40 -18 15z"/>
<path d="M360 618 c0 -7 5 -20 10 -28 8 -12 10 -9 10 13 0 15 -4 27 -10 27 -5
0 -10 -6 -10 -12z"/>
<path d="M460 621 c0 -5 -11 -12 -25 -15 -23 -6 -55 -50 -55 -76 0 -6 34 -10
90 -10 84 0 90 1 90 20 0 24 -42 70 -65 70 -8 0 -15 5 -15 10 0 6 -4 10 -10
10 -5 0 -10 -4 -10 -9z"/>
<path d="M160 610 c0 -5 -7 -10 -15 -10 -18 0 -65 -43 -65 -60 0 -6 33 -10 85
-10 108 0 113 17 23 73 -16 10 -28 13 -28 7z"/>
<path d="M50 490 c0 -5 6 -10 13 -10 7 0 18 -9 25 -20 7 -11 19 -20 27 -20 12
0 14 -7 9 -26 -5 -19 -4 -25 5 -20 6 4 11 16 11 27 0 32 46 25 58 -8 l10 -28
1 26 c1 18 8 28 21 32 11 3 20 12 20 21 0 9 6 16 14 16 8 0 18 5 21 10 4 6
-37 10 -114 10 -74 0 -121 -4 -121 -10z"/>
<path d="M377 470 c15 -16 34 -30 40 -30 7 0 13 -10 14 -22 l0 -23 11 23 c15
30 46 28 58 -3 5 -14 12 -25 15 -25 3 0 3 11 -1 25 -5 21 -3 25 16 25 13 0 24
8 27 20 3 11 12 20 19 20 8 0 14 5 14 10 0 6 -47 10 -121 10 l-121 0 29 -30z"/>
<path d="M28 369 c-24 -14 -25 -97 -2 -106 31 -12 49 11 49 63 0 52 -13 64
-47 43z"/>
<path d="M97 373 c-11 -10 -8 -72 3 -94 12 -21 40 -25 58 -7 7 7 12 34 12 60
0 48 0 48 -33 48 -19 0 -37 -3 -40 -7z"/>
<path d="M190 326 c0 -60 8 -71 46 -62 22 6 24 11 24 61 l0 55 -35 0 -35 0 0
-54z"/>
<path d="M280 333 c0 -52 12 -73 42 -73 24 0 40 34 36 78 -3 35 -5 37 -40 40
l-38 3 0 -48z"/>
<path d="M372 329 c3 -59 24 -82 56 -63 12 8 17 24 17 60 l0 49 -38 3 -38 3 3
-52z"/>
<path d="M464 366 c-10 -27 1 -89 19 -100 31 -19 52 4 55 63 l3 51 -36 0 c-21
0 -38 -6 -41 -14z"/>
<path d="M557 373 c-10 -9 -8 -58 3 -87 10 -28 38 -34 58 -14 20 20 15 86 -7
98 -23 12 -45 13 -54 3z"/>
<path d="M76 261 c-4 -6 -20 -11 -37 -11 l-29 0 0 -65 0 -65 310 0 310 0 0 68
0 69 -30 -5 c-17 -2 -36 1 -44 7 -10 8 -16 9 -21 1 -8 -13 -58 -13 -72 1 -8 8
-13 8 -17 0 -9 -14 -59 -14 -73 0 -8 8 -13 8 -17 0 -9 -14 -63 -14 -71 -1 -4
7 -12 7 -25 0 -25 -13 -63 -13 -77 1 -8 8 -13 8 -17 0 -9 -14 -59 -14 -73 0
-8 8 -13 8 -17 0z"/>
<path d="M80 50 c0 -43 3 -50 20 -50 17 0 20 7 20 50 0 43 -3 50 -20 50 -17 0
-20 -7 -20 -50z"/>
<path d="M520 50 c0 -43 3 -50 20 -50 17 0 20 7 20 50 0 43 -3 50 -20 50 -17
0 -20 -7 -20 -50z"/>
</g>
</svg>
