<?xml version="1.0" standalone="no"?>
<!DOCTYPE svg PUBLIC "-//W3C//DTD SVG 20010904//EN"
 "http://www.w3.org/TR/2001/REC-SVG-20010904/DTD/svg10.dtd">
<svg version="1.0" xmlns="http://www.w3.org/2000/svg"
 width="64.000000pt" height="64.000000pt" viewBox="0 0 64.000000 64.000000"
 preserveAspectRatio="xMidYMid meet">

<g transform="translate(0.000000,64.000000) scale(0.100000,-0.100000)"
fill="#000000" stroke="none">
<path d="M540 555 c0 -54 0 -55 30 -55 30 0 30 1 30 55 0 54 0 55 -30 55 -30
0 -30 -1 -30 -55z"/>
<path d="M265 569 l-30 -19 78 0 c42 0 77 -3 77 -7 0 -4 -19 -27 -42 -50 -38
-38 -41 -45 -27 -58 13 -14 19 -12 55 15 21 16 49 30 61 30 13 0 30 11 39 25
9 14 23 25 30 25 9 0 14 11 14 30 l0 30 -112 -1 c-94 0 -118 -4 -143 -20z"/>
<path d="M60 510 c0 -19 7 -20 128 -20 116 0 131 2 147 20 18 20 17 20 -128
20 -140 0 -147 -1 -147 -20z"/>
<path d="M85 458 c-38 -106 -45 -149 -45 -285 l0 -143 165 0 165 0 0 143 c0
111 4 156 19 205 11 34 17 62 15 62 -3 0 -18 -10 -34 -21 -28 -21 -30 -21 -55
-5 -18 12 -25 24 -22 37 5 18 -1 19 -99 19 -75 0 -106 -4 -109 -12z m35 -158
c0 -11 5 -20 10 -20 6 0 10 9 10 20 0 11 5 20 10 20 6 0 10 -9 10 -20 0 -11 5
-20 10 -20 6 0 10 9 10 20 0 11 5 20 11 20 8 0 9 -12 4 -37 -4 -21 -8 -71 -9
-112 -1 -58 -5 -76 -18 -85 -13 -8 -23 -8 -36 0 -13 9 -17 27 -18 85 -1 41 -5
91 -9 112 -5 25 -4 37 4 37 6 0 11 -9 11 -20z m172 -70 c1 -50 2 -100 2 -111
1 -29 -28 -48 -51 -33 -14 9 -17 23 -15 59 2 29 -1 51 -8 55 -27 16 22 120 56
120 11 0 14 -20 16 -90z"/>
<path d="M130 250 c0 -5 9 -10 20 -10 11 0 20 5 20 10 0 6 -9 10 -20 10 -11 0
-20 -4 -20 -10z"/>
<path d="M140 206 c0 -7 -3 -34 -6 -60 -6 -43 -5 -46 16 -46 21 0 22 3 16 46
-3 26 -6 53 -6 60 0 8 -4 14 -10 14 -5 0 -10 -6 -10 -14z"/>
<path d="M247 268 c-21 -46 -21 -54 -1 -62 24 -9 26 -4 22 50 l-4 49 -17 -37z"/>
<path d="M246 149 c-9 -46 -8 -49 15 -49 19 0 21 4 15 31 -3 17 -6 35 -6 40 0
23 -18 6 -24 -22z"/>
<path d="M408 370 c-24 -81 -26 -329 -3 -310 12 10 15 37 15 126 0 69 4 114
10 114 6 0 10 -45 10 -114 0 -89 3 -116 15 -126 23 -19 21 229 -2 310 -10 33
-20 60 -23 60 -3 0 -13 -27 -22 -60z"/>
<path d="M415 40 c-3 -5 3 -10 15 -10 12 0 18 5 15 10 -3 6 -10 10 -15 10 -5
0 -12 -4 -15 -10z"/>
</g>
</svg>
