<svg width="894" height="679" viewBox="0 0 894 679" fill="none" xmlns="http://www.w3.org/2000/svg">
<path d="M729 302C729 462.446 595.406 593 430 593C264.594 593 131 462.446 131 302C131 141.554 264.594 11 430 11C595.406 11 729 141.554 729 302Z" stroke="url(#paint0_linear_10_100)" stroke-width="22"/>
<path d="M664 300.677C664 426.151 559.508 528.355 430 528.355C300.492 528.355 196 426.151 196 300.677C196 175.204 300.492 73 430 73C559.508 73 664 175.204 664 300.677Z" stroke="url(#paint1_linear_10_100)" stroke-width="22"/>
<rect x="10" y="277" width="98" height="24" fill="white"/>
<rect x="752" y="277" width="98" height="24" fill="white"/>
<rect x="796" y="557" width="52" height="24" fill="white"/>
<path d="M255.2 622.68H269.76C275.253 622.68 279.733 624.013 283.2 626.68C286.667 629.293 288.4 633.48 288.4 639.24C288.4 644.947 286.667 649.16 283.2 651.88C279.733 654.547 275.253 655.88 269.76 655.88H259.04V673.96C259.04 675.987 258 677 255.92 677H255.2C253.12 677 252.08 675.987 252.08 673.96V625.8C252.08 623.72 253.12 622.68 255.2 622.68ZM259.04 628.6V649.88H269.84C277.68 649.88 281.6 646.333 281.6 639.24C281.6 632.147 277.68 628.6 269.84 628.6H259.04ZM303.87 622.68H304.59C306.723 622.68 307.79 623.72 307.79 625.8V673.96C307.79 675.987 306.723 677 304.59 677H303.87C301.843 677 300.83 675.987 300.83 673.96V625.8C300.83 623.72 301.843 622.68 303.87 622.68ZM326.995 622.76H360.595C362.035 622.76 363.182 623.187 364.035 624.04C364.888 624.893 365.315 626.013 365.315 627.4V629.08C365.315 630.253 363.635 632.707 360.275 636.44C356.968 640.12 351.768 645.987 344.675 654.04C337.582 662.04 332.675 667.56 329.955 670.6V671.48H361.795C362.862 671.48 363.635 671.72 364.115 672.2C364.595 672.627 364.835 673.373 364.835 674.44C364.835 675.453 364.595 676.147 364.115 676.52C363.688 676.84 362.915 677 361.795 677H326.995C325.555 677 324.435 676.6 323.635 675.8C322.835 675 322.435 673.907 322.435 672.52V671.48C322.435 669.88 323.822 667.48 326.595 664.28C329.422 661.027 332.622 657.427 336.195 653.48C345.102 643.56 352.275 635.507 357.715 629.32V628.28H326.995C325.928 628.28 325.182 628.093 324.755 627.72C324.328 627.293 324.115 626.547 324.115 625.48C324.115 624.413 324.328 623.693 324.755 623.32C325.182 622.947 325.928 622.76 326.995 622.76ZM382.386 622.76H415.986C417.426 622.76 418.572 623.187 419.426 624.04C420.279 624.893 420.706 626.013 420.706 627.4V629.08C420.706 630.253 419.026 632.707 415.666 636.44C412.359 640.12 407.159 645.987 400.066 654.04C392.972 662.04 388.066 667.56 385.346 670.6V671.48H417.186C418.252 671.48 419.026 671.72 419.506 672.2C419.986 672.627 420.226 673.373 420.226 674.44C420.226 675.453 419.986 676.147 419.506 676.52C419.079 676.84 418.306 677 417.186 677H382.386C380.946 677 379.826 676.6 379.026 675.8C378.226 675 377.826 673.907 377.826 672.52V671.48C377.826 669.88 379.212 667.48 381.986 664.28C384.812 661.027 388.012 657.427 391.586 653.48C400.492 643.56 407.666 635.507 413.106 629.32V628.28H382.386C381.319 628.28 380.572 628.093 380.146 627.72C379.719 627.293 379.506 626.547 379.506 625.48C379.506 624.413 379.719 623.693 380.146 623.32C380.572 622.947 381.319 622.76 382.386 622.76ZM437.856 622.68H465.456C467.43 622.68 468.416 623.693 468.416 625.72C468.416 627.693 467.43 628.68 465.456 628.68H441.696V645.8H462.816C464.79 645.8 465.776 646.813 465.776 648.84C465.776 650.813 464.79 651.8 462.816 651.8H441.696V671H465.456C467.43 671 468.416 672.013 468.416 674.04C468.416 676.013 467.43 677 465.456 677H437.856C435.776 677 434.736 675.987 434.736 673.96V625.72C434.736 623.693 435.776 622.68 437.856 622.68ZM487.628 628.68V647.64H498.828C502.135 647.64 504.801 646.813 506.828 645.16C508.908 643.507 509.948 641.16 509.948 638.12C509.948 635.027 508.961 632.68 506.988 631.08C505.068 629.48 502.348 628.68 498.828 628.68H487.628ZM499.068 622.68C502.161 622.68 504.961 623.133 507.468 624.04C509.975 624.893 512.135 626.547 513.948 629C515.761 631.453 516.668 634.68 516.668 638.68C516.668 642.627 515.201 645.933 512.268 648.6C509.335 651.267 505.761 652.76 501.548 653.08C503.415 656.6 506.215 660.573 509.948 665C513.735 669.427 517.335 672.813 520.748 675.16C519.681 676.867 518.295 677.72 516.588 677.72C514.881 677.72 513.201 677.16 511.548 676.04C509.948 674.92 508.481 673.613 507.148 672.12C505.815 670.627 504.295 668.627 502.588 666.12C500.775 663.453 498.241 659.213 494.988 653.4H487.628V674.04C487.628 676.013 486.561 677 484.428 677H484.028C481.948 677 480.908 676.013 480.908 674.04V625.8C480.908 623.773 481.948 622.76 484.028 622.76L498.508 622.68C498.668 622.68 498.855 622.68 499.068 622.68ZM534.651 622.68H535.371C537.505 622.68 538.571 623.72 538.571 625.8V673.96C538.571 675.987 537.505 677 535.371 677H534.651C532.625 677 531.611 675.987 531.611 673.96V625.8C531.611 623.72 532.625 622.68 534.651 622.68ZM573.856 622.76H574.736C576.07 622.76 576.923 622.92 577.296 623.24C577.723 623.56 577.99 623.773 578.096 623.88C578.256 623.933 578.443 624.147 578.656 624.52C578.923 624.893 579.083 625.133 579.136 625.24C579.243 625.347 579.43 625.667 579.696 626.2C579.963 626.733 580.15 627.08 580.256 627.24C586.816 639.133 592.87 654.387 598.416 673C598.576 673.64 598.656 674.253 598.656 674.84C598.656 676.28 597.83 677 596.176 677H594.256C593.35 677 592.71 676.84 592.336 676.52C592.016 676.2 591.776 675.96 591.616 675.8C591.456 675.64 591.296 675.347 591.136 674.92C590.976 674.44 590.87 674.093 590.816 673.88C590.656 673.56 590.123 671.747 589.216 668.44C588.363 665.08 587.403 661.853 586.336 658.76H562.176C560.843 662.867 559.803 666.36 559.056 669.24C558.31 672.12 557.883 673.667 557.776 673.88C557.723 674.093 557.616 674.44 557.456 674.92C557.296 675.347 557.136 675.64 556.976 675.8C556.816 675.96 556.603 676.147 556.336 676.36C555.91 676.787 555.243 677 554.336 677H552.416C550.71 677 549.856 676.28 549.856 674.84C549.856 674.467 549.963 673.853 550.176 673C555.723 654.387 561.776 639.133 568.336 627.24C568.443 627.08 568.63 626.733 568.896 626.2C569.163 625.667 569.323 625.347 569.376 625.24C569.483 625.133 569.643 624.893 569.856 624.52C570.123 624.147 570.31 623.933 570.416 623.88C570.576 623.773 570.79 623.613 571.056 623.4C571.323 623.187 571.563 623.053 571.776 623C572.523 622.84 573.216 622.76 573.856 622.76ZM574.256 630.36C570.79 636.493 567.43 644.04 564.176 653H584.416C582.496 647.72 579.11 640.173 574.256 630.36Z" fill="white"/>
<rect x="188" y="277" width="483" height="24" fill="white"/>
<rect x="9" y="557" width="767" height="24" fill="white"/>
<ellipse cx="337.5" cy="189" rx="49.5" ry="49" fill="white"/>
<ellipse cx="519.5" cy="189" rx="49.5" ry="49" fill="white"/>
<circle cx="430" cy="117" r="15" fill="white"/>
<circle cx="430" cy="253" r="15" fill="white"/>
<circle cx="259" cy="253" r="15" fill="white"/>
<circle cx="597" cy="253" r="15" fill="white"/>
<path d="M33.66 503.06C26.82 503.06 21.9 501.86 18.9 499.46C15.9 497.06 14.4 493.04 14.4 487.4C14.4 481.76 16.38 464.72 20.34 436.28C24.42 407.72 26.46 387.38 26.46 375.26C26.46 363.02 25.62 355.04 23.94 351.32C36.18 352.28 44.22 357.08 48.06 365.72C57.3 360.68 67.44 358.16 78.48 358.16C89.64 358.16 98.4 361.64 104.76 368.6C111.24 375.44 114.48 383.9 114.48 393.98C114.48 406.46 109.92 417.74 100.8 427.82C96.36 432.62 90.6 436.52 83.52 439.52C76.56 442.52 68.82 444.02 60.3 444.02C56.7 444.02 53.28 443.78 50.04 443.3L49.5 435.74C49.98 435.74 50.46 435.74 50.94 435.74C64.5 435.74 75.3 430.7 83.34 420.62C88.86 413.42 91.62 405.86 91.62 397.94C91.62 386.3 86.88 378.62 77.4 374.9C69.36 371.9 60.36 372.5 50.4 376.7V377.06C50.4 381.62 48.66 396.56 45.18 421.88C41.82 447.08 40.14 468.14 40.14 485.06C40.14 492.62 40.5 498.5 41.22 502.7C37.38 502.94 34.86 503.06 33.66 503.06ZM219.977 419C219.977 402.2 217.637 390.02 212.957 382.46C208.397 374.9 202.097 371.12 194.057 371.12C186.137 371.12 178.577 374.66 171.377 381.74C164.297 388.7 158.717 397.52 154.637 408.2C150.677 418.88 148.697 429.68 148.697 440.6C148.697 455.6 151.157 467.9 156.077 477.5C161.117 487.1 168.677 491.9 178.757 491.9C187.157 491.9 194.537 488.24 200.897 480.92C207.377 473.48 212.177 464.3 215.297 453.38C218.417 442.46 219.977 431 219.977 419ZM223.217 484.88C217.817 490.76 211.037 495.5 202.877 499.1C194.837 502.7 186.017 504.5 176.417 504.5C166.817 504.5 158.357 502.34 151.037 498.02C143.837 493.7 138.077 487.94 133.757 480.74C125.117 466.34 120.797 449.54 120.797 430.34C120.797 411.14 125.537 394.04 135.017 379.04C144.617 364.04 157.397 354.56 173.357 350.6C174.317 350.84 175.217 351.32 176.057 352.04C177.017 352.76 177.557 353.54 177.677 354.38C162.197 365.66 152.837 381.02 149.597 400.46C154.637 386.3 162.197 375.26 172.277 367.34C182.477 359.3 193.397 355.28 205.037 355.28C216.677 355.28 226.577 360.32 234.737 370.4C243.017 380.36 247.157 394.82 247.157 413.78C247.157 432.38 243.677 449.12 236.717 464C233.117 471.92 228.617 478.88 223.217 484.88ZM289.773 503.06C282.933 503.06 278.013 501.86 275.013 499.46C272.013 497.06 270.513 493.04 270.513 487.4C270.513 481.76 272.493 464.72 276.453 436.28C280.533 407.72 282.573 387.38 282.573 375.26C282.573 363.02 281.733 355.04 280.053 351.32C292.293 352.28 300.333 357.08 304.173 365.72C313.413 360.68 323.553 358.16 334.593 358.16C345.753 358.16 354.513 361.64 360.873 368.6C367.353 375.44 370.593 383.9 370.593 393.98C370.593 406.46 366.033 417.74 356.913 427.82C352.473 432.62 346.713 436.52 339.633 439.52C332.673 442.52 324.933 444.02 316.413 444.02C312.813 444.02 309.393 443.78 306.153 443.3L305.613 435.74C306.093 435.74 306.573 435.74 307.053 435.74C320.613 435.74 331.413 430.7 339.453 420.62C344.973 413.42 347.733 405.86 347.733 397.94C347.733 386.3 342.993 378.62 333.513 374.9C325.473 371.9 316.473 372.5 306.513 376.7V377.06C306.513 381.62 304.773 396.56 301.293 421.88C297.933 447.08 296.253 468.14 296.253 485.06C296.253 492.62 296.613 498.5 297.333 502.7C293.493 502.94 290.973 503.06 289.773 503.06ZM401.57 503.06C394.73 503.06 389.81 501.86 386.81 499.46C383.81 497.06 382.31 493.04 382.31 487.4C382.31 481.76 384.29 464.72 388.25 436.28C392.33 407.72 394.37 387.38 394.37 375.26C394.37 363.02 393.53 355.04 391.85 351.32C404.09 352.28 412.13 357.08 415.97 365.72C425.21 360.68 435.35 358.16 446.39 358.16C457.55 358.16 466.31 361.64 472.67 368.6C479.15 375.44 482.39 383.9 482.39 393.98C482.39 406.46 477.83 417.74 468.71 427.82C464.27 432.62 458.51 436.52 451.43 439.52C444.47 442.52 436.73 444.02 428.21 444.02C424.61 444.02 421.19 443.78 417.95 443.3L417.41 435.74C417.89 435.74 418.37 435.74 418.85 435.74C432.41 435.74 443.21 430.7 451.25 420.62C456.77 413.42 459.53 405.86 459.53 397.94C459.53 386.3 454.79 378.62 445.31 374.9C437.27 371.9 428.27 372.5 418.31 376.7V377.06C418.31 381.62 416.57 396.56 413.09 421.88C409.73 447.08 408.05 468.14 408.05 485.06C408.05 492.62 408.41 498.5 409.13 502.7C405.29 502.94 402.77 503.06 401.57 503.06ZM587.887 419C587.887 402.2 585.547 390.02 580.867 382.46C576.307 374.9 570.007 371.12 561.967 371.12C554.047 371.12 546.487 374.66 539.287 381.74C532.207 388.7 526.627 397.52 522.547 408.2C518.587 418.88 516.607 429.68 516.607 440.6C516.607 455.6 519.067 467.9 523.987 477.5C529.027 487.1 536.587 491.9 546.667 491.9C555.067 491.9 562.447 488.24 568.807 480.92C575.287 473.48 580.087 464.3 583.207 453.38C586.327 442.46 587.887 431 587.887 419ZM591.127 484.88C585.727 490.76 578.947 495.5 570.787 499.1C562.747 502.7 553.927 504.5 544.327 504.5C534.727 504.5 526.267 502.34 518.947 498.02C511.747 493.7 505.987 487.94 501.667 480.74C493.027 466.34 488.707 449.54 488.707 430.34C488.707 411.14 493.447 394.04 502.927 379.04C512.527 364.04 525.307 354.56 541.267 350.6C542.227 350.84 543.127 351.32 543.967 352.04C544.927 352.76 545.467 353.54 545.587 354.38C530.107 365.66 520.747 381.02 517.507 400.46C522.547 386.3 530.107 375.26 540.187 367.34C550.387 359.3 561.307 355.28 572.947 355.28C584.587 355.28 594.487 360.32 602.647 370.4C610.927 380.36 615.067 394.82 615.067 413.78C615.067 432.38 611.587 449.12 604.627 464C601.027 471.92 596.527 478.88 591.127 484.88ZM657.683 503.06C650.843 503.06 645.923 501.86 642.923 499.46C639.923 497.06 638.423 493.04 638.423 487.4C638.423 481.76 640.403 464.72 644.363 436.28C648.443 407.72 650.483 387.38 650.483 375.26C650.483 363.02 649.643 355.04 647.963 351.32C660.203 352.28 668.243 357.08 672.083 365.72C681.323 360.68 691.463 358.16 702.503 358.16C713.663 358.16 722.423 361.64 728.783 368.6C735.263 375.44 738.503 383.9 738.503 393.98C738.503 406.46 733.943 417.74 724.823 427.82C720.383 432.62 714.623 436.52 707.543 439.52C700.583 442.52 692.843 444.02 684.323 444.02C680.723 444.02 677.303 443.78 674.063 443.3L673.523 435.74C674.003 435.74 674.483 435.74 674.963 435.74C688.523 435.74 699.323 430.7 707.363 420.62C712.883 413.42 715.643 405.86 715.643 397.94C715.643 386.3 710.903 378.62 701.423 374.9C693.383 371.9 684.383 372.5 674.423 376.7V377.06C674.423 381.62 672.683 396.56 669.203 421.88C665.843 447.08 664.163 468.14 664.163 485.06C664.163 492.62 664.523 498.5 665.243 502.7C661.403 502.94 658.883 503.06 657.683 503.06ZM767.14 346.46C776.02 346.46 780.46 350.18 780.46 357.62C780.46 365.42 777.64 372.92 772 380.12C766.36 387.2 758.14 393.56 747.34 399.2L742.12 391.1C751.6 382.7 756.34 372.98 756.34 361.94C756.34 357.98 755.44 353.48 753.64 348.44C758.32 347.12 762.82 346.46 767.14 346.46ZM840.769 367.16C835.369 367.16 830.869 368.84 827.269 372.2C823.669 375.44 821.869 380.06 821.869 386.06C821.869 392.06 823.369 397.46 826.369 402.26C829.489 406.94 833.269 410.96 837.709 414.32C842.269 417.56 847.189 421.1 852.469 424.94C857.869 428.78 862.789 432.44 867.229 435.92C871.789 439.28 875.569 443.48 878.569 448.52C881.689 453.56 883.249 458.9 883.249 464.54C883.249 475.7 878.689 485.18 869.569 492.98C860.449 500.66 848.449 504.5 833.569 504.5C818.809 504.5 807.109 501.32 798.469 494.96C789.829 488.6 785.509 481.4 785.509 473.36C785.509 465.32 787.909 459.08 792.709 454.64C797.509 450.08 803.689 447.8 811.249 447.8C813.409 447.8 815.449 448.04 817.369 448.52C813.649 454.04 811.789 460.04 811.789 466.52C811.789 472.88 813.769 478.4 817.729 483.08C821.689 487.64 826.909 489.92 833.389 489.92C839.989 489.92 845.509 488.24 849.949 484.88C854.389 481.4 856.609 477.02 856.609 471.74C856.609 466.34 855.109 461.6 852.109 457.52C849.109 453.44 845.389 449.96 840.949 447.08C836.509 444.08 831.649 440.72 826.369 437C821.089 433.16 816.229 429.32 811.789 425.48C807.349 421.64 803.629 416.78 800.629 410.9C797.629 404.9 796.129 398.36 796.129 391.28C796.129 379.88 800.269 370.82 808.549 364.1C816.829 357.26 827.989 353.84 842.029 353.84C856.069 353.84 866.689 357.02 873.889 363.38C881.209 369.62 884.869 376.34 884.869 383.54C884.869 390.62 882.589 396.62 878.029 401.54C873.469 406.34 867.289 408.74 859.489 408.74C856.849 408.74 854.269 408.5 851.749 408.02C857.629 401.78 860.569 395.24 860.569 388.4C860.569 381.44 858.649 376.16 854.809 372.56C850.969 368.96 846.289 367.16 840.769 367.16Z" fill="white"/>
<defs>
<linearGradient id="paint0_linear_10_100" x1="430" y1="0" x2="430" y2="604" gradientUnits="userSpaceOnUse">
<stop offset="0.4999" stop-color="white"/>
<stop offset="0.5" stop-color="white" stop-opacity="0"/>
<stop offset="1" stop-color="white" stop-opacity="0"/>
</linearGradient>
<linearGradient id="paint1_linear_10_100" x1="430" y1="62" x2="430" y2="539.355" gradientUnits="userSpaceOnUse">
<stop offset="0.4999" stop-color="white"/>
<stop offset="0.5" stop-color="white" stop-opacity="0"/>
<stop offset="1" stop-color="white" stop-opacity="0"/>
</linearGradient>
</defs>
</svg>
